<svg width="40" height="40" viewBox="0 0 40 40" fill="none" xmlns="http://www.w3.org/2000/svg">
<path d="M20 40C31.0457 40 40 31.0457 40 20C40 8.95431 31.0457 0 20 0C8.95431 0 0 8.95431 0 20C0 31.0457 8.95431 40 20 40Z" fill="#FF492C"/>
<path d="M28.6563 15.3199H25.2403C25.3323 14.7839 25.6643 14.4839 26.3363 14.1439L26.9643 13.8239C28.0883 13.2479 28.6883 12.5959 28.6883 11.5319C28.6883 10.8639 28.4283 10.3359 27.9123 9.95589C27.3963 9.57589 26.7883 9.38789 26.0763 9.38789C25.5255 9.38141 24.9847 9.53571 24.5203 9.83189C24.0523 10.1199 23.7043 10.4919 23.4883 10.9559L24.4763 11.9479C24.8603 11.1719 25.4163 10.7919 26.1483 10.7919C26.7683 10.7919 27.1483 11.1119 27.1483 11.5559C27.1483 11.9279 26.9643 12.2359 26.2523 12.5959L25.8483 12.7919C24.9723 13.2359 24.3643 13.7439 24.0123 14.3199C23.6603 14.8959 23.4883 15.6199 23.4883 16.4959V16.7359H28.6563V15.3199Z" fill="white"/>
<path d="M28.1998 18.3682H22.5438L19.7158 23.2642H25.3718L28.1998 28.1642L31.0278 23.2642L28.1998 18.3682Z" fill="white"/>
<path d="M20.2044 26.5318C16.6044 26.5318 13.6724 23.5998 13.6724 19.9998C13.6724 16.3998 16.6044 13.4678 20.2044 13.4678L22.4404 8.79178C21.704 8.64536 20.9551 8.57167 20.2044 8.57178C13.8924 8.57178 8.77637 13.6878 8.77637 19.9998C8.77637 26.3118 13.8924 31.4278 20.2044 31.4278C22.6233 31.4323 24.9804 30.6643 26.9324 29.2358L24.4604 24.9478C23.2777 25.9694 21.7671 26.5316 20.2044 26.5318Z" fill="white"/>
</svg>
